/* XPM */
static char *_63a7412c7374f2fcf6d6b53c36559aeZDCujk83AKPCcSht[] = {
/* columns rows colors chars-per-pixel */
"64 64 2 1 ",
"  c #A900A9",
". c magenta",
/* pixels */
"                                                                ",
"                                                                ",
"  ............................................................  ",
"  ............................................................  ",
"  ............................................................  ",
"  ............................................................  ",
"  ..............                                          ....  ",
"  .............                                           ....  ",
"  ............                                            ....  ",
"  ...........                                             ....  ",
"  ..........                                              ....  ",
"  .........                                               ....  ",
"  ........                                                ....  ",
"  .......                                                 ....  ",
"  ......                                                  ....  ",
"  .....                                                   ....  ",
"  ....                   .....................................  ",
"  ....                  ......................................  ",
"  ....                 .......................................  ",
"  ....                ........................................  ",
"  ....               .........................................  ",
"  ....              ..........................................  ",
"  ....             ...........................................  ",
"  ....            ............................................  ",
"  ....           .............................................  ",
"  ....          ..............................................  ",
"  ....          ..............................................  ",
"  ....          ..............................................  ",
"  ....          ..............................................  ",
"  ....          ..............................................  ",
"  ....          ..............................................  ",
"  ....          ..............................................  ",
"  ....          ..............................................  ",
"  ....          ..............................................  ",
"  ....          ..............................................  ",
"  ....          ..............................................  ",
"  ....          ..............................................  ",
"  ....          ..............................................  ",
"  ....          ..............................................  ",
"  ....           .............................................  ",
"  ....             ...........................................  ",
"  ....              ..........................................  ",
"  ....               .........................................  ",
"  ....                 .......................................  ",
"  ....                  ......................................  ",
"  ....                   .....................................  ",
"  ....                     ...................................  ",
"  ....                      ..................................  ",
"  .....                                                   ....  ",
"  ......                                                  ....  ",
"  ........                                                ....  ",
"  .........                                               ....  ",
"  ..........                                              ....  ",
"  ............                                            ....  ",
"  .............                                           ....  ",
"  ..............                                          ....  ",
"  ................                                        ....  ",
"  .................                                       ....  ",
"  ............................................................  ",
"  ............................................................  ",
"  ............................................................  ",
"  ............................................................  ",
"                                                                ",
"                                                                "
};
