/* XPM */
static char *_ac4ea494c9142efcc0d9ee43891db337w2IoFl5lQxtbtSb[] = {
/* columns rows colors chars-per-pixel */
"64 64 2 1 ",
"  c #EC8C33",
". c #F4C242",
/* pixels */
"                                                                ",
"                                                                ",
"  ............................................................  ",
"  ............................................................  ",
"  ............................................................  ",
"  ............................................................  ",
"  ....                                                    ....  ",
"  ....                                                    ....  ",
"  ....                                                    ....  ",
"  ....                                                    ....  ",
"  ....                                                    ....  ",
"  ....                                                    ....  ",
"  ....                                                    ....  ",
"  ....                                                    ....  ",
"  ....                                                    ....  ",
"  ....                                                    ....  ",
"  ....          ..............................................  ",
"  ....          ..............................................  ",
"  ....          ..............................................  ",
"  ....          ..............................................  ",
"  ....          ..............................................  ",
"  ....          ..............................................  ",
"  ....          ..............................................  ",
"  ....          ..............................................  ",
"  ....          ..............................................  ",
"  ....          ..............................................  ",
"  ....          ..............................................  ",
"  ....                                                   .....  ",
"  ....                                                   .....  ",
"  ....                                                   .....  ",
"  ....                                                   .....  ",
"  ....                                                   .....  ",
"  ....                                                   .....  ",
"  ....                                                   .....  ",
"  ....                                                   .....  ",
"  ....                                                   .....  ",
"  ....                                                   .....  ",
"  ....          ..............................................  ",
"  ....          ..............................................  ",
"  ....          ..............................................  ",
"  ....          ..............................................  ",
"  ....          ..............................................  ",
"  ....          ..............................................  ",
"  ....          ..............................................  ",
"  ....          ..............................................  ",
"  ....          ..............................................  ",
"  ....          ..............................................  ",
"  ....          ..............................................  ",
"  ....                                                    ....  ",
"  ....                                                    ....  ",
"  ....                                                    ....  ",
"  ....                                                    ....  ",
"  ....                                                    ....  ",
"  ....                                                    ....  ",
"  ....                                                    ....  ",
"  ....                                                    ....  ",
"  ....                                                    ....  ",
"  ....                                                    ....  ",
"  ............................................................  ",
"  ............................................................  ",
"  ............................................................  ",
"  ............................................................  ",
"                                                                ",
"                                                                "
};
