/* XPM */
static char *_38600f98f7647ba980ce7cf2d6faeaaACUyZ87yHLaN8p4Q[] = {
/* columns rows colors chars-per-pixel */
"64 64 2 1 ",
"  c gray50",
". c #C3C3C3",
/* pixels */
"                                                                ",
"                                                                ",
"  ............................................................  ",
"  ............................................................  ",
"  ............................................................  ",
"  ............................................................  ",
"  ....                                                    ....  ",
"  ....                                                    ....  ",
"  ....                                                    ....  ",
"  ....                                                    ....  ",
"  ....                                                    ....  ",
"  ....                                                    ....  ",
"  ....                                                    ....  ",
"  ....                                                    ....  ",
"  ....                                                    ....  ",
"  ....                                                    ....  ",
"  ....          ..............................................  ",
"  ....          ..............................................  ",
"  ....          ..............................................  ",
"  ....          ..............................................  ",
"  ....          ..............................................  ",
"  ....          ..............................................  ",
"  ....          ..............................................  ",
"  ....          ..............................................  ",
"  ....          ..............................................  ",
"  ....          ..............................................  ",
"  ....          ..............................................  ",
"  ....                                                    ....  ",
"  ....                                                    ....  ",
"  ....                                                    ....  ",
"  ....                                                    ....  ",
"  ....                                                    ....  ",
"  ....                                                    ....  ",
"  ....                                                    ....  ",
"  ....                                                    ....  ",
"  ....                                                    ....  ",
"  ....                                                    ....  ",
"  ....          ..............................................  ",
"  ....          ..............................................  ",
"  ....          ..............................................  ",
"  ....          ..............................................  ",
"  ....          ..............................................  ",
"  ....          ..............................................  ",
"  ....          ..............................................  ",
"  ....          ..............................................  ",
"  ....          ..............................................  ",
"  ....          ..............................................  ",
"  ....          ..............................................  ",
"  ....          ..............................................  ",
"  ....          ..............................................  ",
"  ....          ..............................................  ",
"  ....          ..............................................  ",
"  ....          ..............................................  ",
"  ....          ..............................................  ",
"  ....          ..............................................  ",
"  ....          ..............................................  ",
"  ....          ..............................................  ",
"  ....          ..............................................  ",
"  ............................................................  ",
"  ............................................................  ",
"  ............................................................  ",
"  ............................................................  ",
"                                                                ",
"                                                                "
};
