
/* XPM */
static char *result[] = {
/* columns rows colors chars-per-pixel */
"64 64 227 2 ",
"   c #020103",
".  c #0B0404",
"X  c #0A0908",
"o  c #0C0B0B",
"O  c #120A06",
"+  c #150809",
"@  c #130D0B",
"#  c #0F100A",
"$  c #12130C",
"%  c #1A120E",
"&  c #070C10",
"*  c #0D0D12",
"=  c #130E12",
"-  c #180F10",
";  c #0E1114",
":  c #0D181C",
">  c #141314",
",  c #1A1415",
"<  c #141915",
"1  c #1C1B16",
"2  c #15151A",
"3  c #1B161A",
"4  c #161A1C",
"5  c #1B1C1D",
"6  c #270D16",
"7  c #291313",
"8  c #231A16",
"9  c #241618",
"0  c #231D1B",
"q  c #291E1B",
"w  c #1C211E",
"e  c #24221D",
"r  c #2C231E",
"t  c #32241D",
"y  c #39271D",
"u  c #181720",
"i  c #151C21",
"p  c #1C1D22",
"a  c #221E22",
"s  c #2A1C23",
"d  c #391C27",
"f  c #1D2223",
"g  c #1C2428",
"h  c #232324",
"j  c #2B2523",
"k  c #252926",
"l  c #2D2925",
"z  c #24252A",
"x  c #29252A",
"c  c #25292B",
"v  c #2B2A2B",
"b  c #322523",
"n  c #342A26",
"m  c #392826",
"M  c #332D2B",
"N  c #392E2B",
"B  c #2C312F",
"V  c #35312D",
"C  c #3B322E",
"Z  c #2B2B32",
"A  c #332D32",
"S  c #3A2E35",
"D  c #2E3133",
"F  c #353232",
"G  c #3C3532",
"H  c #3D3935",
"J  c #36353A",
"K  c #3B353B",
"L  c #33383C",
"P  c #3C3A3B",
"I  c #441B28",
"U  c #452A27",
"Y  c #413633",
"T  c #4F3537",
"R  c #433A36",
"E  c #4B3B33",
"W  c #443C3B",
"Q  c #493E3B",
"!  c #3D403E",
"~  c #46413D",
"^  c #4B423C",
"/  c #4A4839",
"(  c #52463D",
")  c #524A3E",
"_  c #604B3E",
"`  c #3D3C41",
"'  c #423D41",
"]  c #463F43",
"[  c #454244",
"{  c #4B4442",
"}  c #4D4945",
"|  c #47434A",
" . c #4C464B",
".. c #4C4A4B",
"X. c #514644",
"o. c #574747",
"O. c #544B45",
"+. c #5A4C43",
"@. c #534D4A",
"#. c #5A4E4A",
"$. c #56524D",
"%. c #5B5548",
"&. c #5C534C",
"*. c #4D4D51",
"=. c #534E51",
"-. c #545455",
";. c #5B5551",
":. c #5D5956",
">. c #56555A",
",. c #58575D",
"<. c #5C5B5B",
"1. c #724C4D",
"2. c #62544D",
"3. c #6A564A",
"4. c #635553",
"5. c #685654",
"6. c #635A55",
"7. c #6B5C55",
"8. c #645C5A",
"9. c #6A5D5B",
"0. c #735D55",
"q. c #5F605C",
"w. c #63615E",
"e. c #68655A",
"r. c #6B615E",
"t. c #72625B",
"y. c #7A6659",
"u. c #7F705B",
"i. c #5D5C61",
"p. c #615F64",
"a. c #6C5F60",
"s. c #7F5867",
"d. c #646364",
"f. c #6D6361",
"g. c #65646A",
"h. c #696769",
"j. c #6B6A6C",
"k. c #726663",
"l. c #746965",
"z. c #7A6A64",
"x. c #756B69",
"c. c #7A6D6A",
"v. c #7C736C",
"b. c #6D6C72",
"n. c #706F75",
"m. c #737274",
"M. c #7B7473",
"N. c #75747A",
"B. c #79777C",
"V. c #7B7B7D",
"C. c red",
"Z. c #FF7300",
"A. c #816358",
"S. c #835C69",
"D. c #896B6D",
"F. c #897568",
"G. c #96786B",
"H. c #887A75",
"J. c #967D75",
"K. c #A27E73",
"L. c #908071",
"P. c #998579",
"I. c #A58379",
"U. c #A38A7C",
"Y. c #AB8C7D",
"T. c #A5927D",
"R. c #7D7C82",
"E. c #807F86",
"W. c #828185",
"Q. c #85848A",
"!. c #89888E",
"~. c #998A86",
"^. c #8D8C92",
"/. c #949399",
"(. c #A38C82",
"). c #A78986",
"_. c #AB8C82",
"`. c #B48E82",
"'. c #B48E8A",
"]. c #AB9384",
"[. c #A7958A",
"{. c #B29384",
"}. c #B4948A",
"|. c #B89689",
" X c #B59B8C",
".X c #BB9D8D",
"XX c #AB9B92",
"oX c #B69D96",
"OX c #BD9C92",
"+X c #B8A08D",
"@X c #AEA09C",
"#X c #BCA394",
"$X c #B4A39B",
"%X c #BBA69A",
"&X c #9C9BA1",
"*X c #A9A5A8",
"=X c #BEADA2",
"-X c #BAA8A5",
";X c #C19C8E",
":X c #C29D98",
">X c #C3A495",
",X c #C9A696",
"<X c #C7A996",
"1X c #C5A49C",
"2X c #C9A39C",
"3X c #C4AB9D",
"4X c #CCAD9A",
"5X c #CCAC9D",
"6X c #C4ADA2",
"7X c #CAACA2",
"8X c #CAA8A4",
"9X c #D3AEA6",
"0X c #C5B1A4",
"qX c #CDB3A3",
"wX c #C5B2AB",
"eX c #CCB3AB",
"rX c #CAB9AC",
"tX c #D2B4A4",
"yX c #D2B4AC",
"uX c #D5BBA8",
"iX c #D4BAAC",
"pX c #CDB9B1",
"aX c #D3BCB3",
"sX c #D8BAB4",
"dX c #D8C2B6",
"fX c #DEC7C2",
"gX c #E8CCC0",
/* pixels */
"@ @ % @ O O # @ $ % $ $ $ O # # $ $ $ < $ $ # # # # # # $ $ < $ $ < < $ $ # # # # # # $ $ $ $ $ < $ $ @ = - = + - = = @ @ @ o o ",
"O O + O O X # O $ @ # # # # $ # X # # $ $ $ # # $ < < $ < < 1 < $ $ $ # # # # # $ # $ $ $ $ $ $ # # O O @ @ O o @ @ O o o . . . ",
"8 8 0 0 8 0 e j e e e l k l l V B B F F J H J H l l k k k l k B r e w e w w 1 1 w < w < $ # # # 3 , , , , , > - , > - - @ = O + ",
"n M C C C V G H H ~ ~ { } ..$.$.-.<.<.p.d.h.h.h.d.d.d.d.h.d.e.d.w.w.q.q.:.:.:.:...../ [ / ! H H V M v v M M l j h s r 0 0 0 0 5 ",
"n M G C N G G R [ / } @.$.:.q.q.i.g.g.b.b.b.g.R.V.V.R.V.R.V.V.W.V.V.V.m.m.j.m.j.j.j.j.q.q.<.:.-.{ [ ' W W ' P H F A F M A M v M ",
"M N N G F C G H ~ [ } $.:.q.e.q.g.b.m.N.R.R.R.R.N.B.B.B.V.V.R.V.m.m.m.m.j.j.j.e.h.h.d.q.<.-.-.$...{ { [ { [ W W H G G F S M M M ",
"G Y Y Y G G G H ~ ~ ~ } $.-.:.q.g.b.b.R.n.R.R.R.B.V.R.R.W.Q.Q.Q.W.W.V.V.V.m.m.m.j.j.h.d.q.,.>.>.} [ Q W Q W P K G G G F A A A M ",
"C C Y G N N C C V V H ! / / @.@.>.,.i.i.i.i.i.i.d.d.g.g.b.n.N.N.m.m.m.j.j.j.j.e.d.i.<.>.-.-.*... .{ ' W P W P G G K G F G G M A ",
"S N Y G Y R N C V M F H W ~ } .. .*.*.>.i.i.>.>.i.i.g.` i.i.R./.^.q.......>.*.-...| | P L ` | ..W P H K H K K M v ' P A S F M x ",
"Y m R N Y R N C ^ ^ { X.$.&.8.w.p.g.g.b.g.R.R.R.R.R.^.R.R.N././.*Xm.j.d.g.b.i.p.g.g.i.i.i.>...| | { [ Q Q W R K l Q W A M G l l ",
"Y N T S G Q M C Q ^ { } $.:.8.w.m.N.R.R.R.R.R.^.R.R.!.R.R.R.^.^./.g.d.j.n.R.m.m.n.d.p.d.j.g.,...@.} [ [ [ W W K l W W M G A l x ",
"Y m Y N Y R m S H R W Q X.@.;.:.g.b.N.B.R.R.R.^.&XR.!.g.g.i.R.R.Q.d.j.j.j.B.B.W.n.j.i.,.<.p.>.*.X.| Q W P K F M x W K M M A b j ",
"Y m Y m N R N G Y W Q ^ X.@.$.:.>.i.g.j.b.n.b.R.R.g.i.` | ` i.g.! B ` P L -.p.N.n.b.j.p.>.*.....{ Q P P H G M M l K G M M A j h ",
"Y m S m m Y m S R Y W W ^ { X.@.*.-.,.i.g.p.i.i.*.` ` & >           * X   > k P ! ..-.<.-...| ! | [ W H G K F M j P G l M M x s ",
"Y d N m m Y m N G Y G Y H W Q [ *... .-.i.*.` Z     & & p * p 4 f ; w #   o . X X < c P | } ! ! ' W K H K K G M s H G x v M j e ",
"U b N s b S b N R R R R R W Q Q | ] ` |  .` a & u ; z & p & ;   #   < > < h 4 @ X X @ h P | } ! W H G G G G M M j K G x M b j e ",
"N N N r y Y r n Y Y Y / C Y Y Y y O.W G K h = 3 $ > 2 ; & & ; 2 * X o < , , O + . @ .   a ' ] K S G Y Y Y G M M b M M v l j e 0 ",
"N M N r n C r N Y C C Y C Y Y Y Y G Q W q O @ 0 # $ 4 4 ; o & o 2 = @ @ @ O O O + , , + , x J P S C Y Y Y G N M l l l n l r e 1 ",
"n m C q n Y t N U C C Y Y Y Y Y Y n Q C @ O h , % % r t e 9 9 9 q 9 r b m r q 7 O + - @ X = c ~ S G Y Y Y G C N j l b M l e 0 1 ",
"n n N q n Y t C Y N Y C N N N C C V N e % n n O r t t y r t N E U U T 1.0.3.T E y % % 1 = o h H C G Y R Y Y G N j b M M M r e 8 ",
"b n n q n Y n C Y C Y Y C C C N V H r % 8 r 8 y _ ( E y y U _ _ +.1.A.G.G.G.0.0.3.m r r 8 < 1 w G G Y R R K S C r l V V V l 0 1 ",
"t t n q n R n Y Y Y Y C Y C N C H V e e r O 7 7.T.L.F.0.3.3.A.G.K.G.G.K.K.K.G.F.3.U y V e < w < S N Y R R R Y G j n V V V l e 8 ",
"r j n q n E n Y Y Y Y Y Y N C C H V l r % r 3.[.<X<X<X;XY.Y.T.{.;X`.`.`.Y.Y.I.U.0.) %.+.e $ w e C G Y R R W Y K n n C H G l e e ",
"r t n r n Y m Y / Y E Y Y Y C C V V V % O 6.%XdX<X4X4X4X4X<X+X+X,X,X,X,X4X>X+X XT.~.XXL.M @ h x C C Y Y R R Y Y l V H G H V r e ",
"q r b N Y R E Q Q ^ Q Y Y Y Y G / l V X 9 ~.6XP. X).]. XT.<XuX<X;X,X5XtX<X{.Y.C.%XH.[.*XH.G @ j W W Q W W W R R N C G H R V l e ",
"r b n N N C C C Y Y Y R Y Y E Q / ! r O o.~.H.F.F.0.A.G.L.L.T.+XtX9X<XT.G.F.C.C.3.z.F.~.-Xa.  s T R R R R R R W G G H W H H r e ",
"r b n N C C C Y U N N N C Y Y R l } $.Y T 5.9.XX$X].P.T.T.T.T.T.Y.{.].Y.P.C.C.Z.C.[.~.H.@Xa.. b W Q Q Q ] Q Q Q R R W W ~ V j w ",
"r t n C Y E Q Q R Y R R R R ^ ^ #.G { O.#.H.).'.U.P.G.y.L.T.T.A.A.F.L.L.G.C.Z.Z.C.J.(.P.9.] s q X.X.X.o.X.X.X.X.~ ~ ~ ~ ~ G r 1 ",
"r t n C Y Q ^ ^ / ( ^ ^ ^ ^ ^ } ;.{ %.O.l.$X6XoXI.).G.y.F.T.L.3.I.F.A.G.F.C.Z.Z.C.y.[.XXc.t.6.~ o.o.o.X.o.X.@.O.{ ^ } { ~ G l e ",
"j b n N C C C C R R Y Y Y Y Y R l 6.e./ F.$X[.8X7X<X+X.X+XP.L.I.qXJ.0.G.T.Y.C.C. XT.XX$X%X[.7.2.{ X.X.{ ^ X.{ X.{ } } } ~ H n e ",
"t j n n N N C C C C N C C C Y Y / } l y ~.dX X X_.Y.I.{.Y.I.L.T.tX{.G.D.I.{.{.T.#X%X[.(.=XL.y ) Q X.{ { { { ^ { { } } } / ~ V e ",
"q r b N Y R E ^ Q E Q Q ( ( o.+.%./ ) ) F.rXdXgX7XtX;X{.4X<X.X;X.X2X.XI.K.{..X_.T.+X%X=X=XL.m ( X.X.X.X.X.X.X.O.{ { O...} ~ V l ",
"e r e n / Y r H Y C G E ^ ^ ^ ) / %.%._ v.$XdXdXdXuXuXtX4X4X,X:X2X2X:X:X|.OX:X>X3X0X3XrX=Xy.E 2.&.#.#.o.@.#.#.#.@.;.} { @.[ M e ",
"e l e n / H l C Y / Y E Q ^ ) ) ) %.%.%.l.XXpXdXuXuXtX4X,X;X;X;X8X:X;X'.'.:X7XiX7X0XqXrXXXt.+.7.&.;.&.#.=.&.#.;.=.;.$.} $.} V e ",
"e j e r ~ G t H / Y E R ^ ^ ) ) ) ) 6.7.e.P.pXpXdXuXtX9X4X,X2X2X:X:X'.'.{.oX7XyX6X6XaX=XP.t.6.7.5.4.4.;.;.4.:.6.#.:.#.X.$.@.V l ",
"e l e l ~ G r C Y / R / ^ ( O.+.%.%.6.e.&.L.wXfXdXdXuXuXtX9X9X9X8X:X:X:X:X1X1X3XeXpXaX-Xz.7.l.7.8.8.8.8.8.4.8.8.4.8.;.} ;.} G l ",
"j l e l ~ V r C R Y ^ ^ ^ ) ) O.%.@.6.6.#.S.-XfXdXdXuX9X9X2X2X2X2X:X1X8X8X8X8X7XpXpXpX).5.5.x.5.5.8.8.5.4.8.8.9.&.6.$.@.;.@.V l ",
"l v e l ~ G r H ^ / E ^ ( ) +.+.%.&.&.2.4.a.).pXdXuX9X,X;X'.;X'.'.'.).)._.oX6XeXyXeXoXH.5.9.a.4.9.9.8.8.4.8.8.8.;.q.&.@.;.@.H l ",
"v V r l / V t Y ^ E ~ / ) O.+.#.O.4.&.4.0.5.z.oXyX9X5X,X;X;X'.'.E.;XI.I.).}.1X6X6X=X~.0.0.s.9.9.9.9.8.8.8.8.9.9.:.w.;.$.:.$.H l ",
"V V j n ~ H l Y ^ ^ ^ ^ ^ O.+.%.O.7.&.&.0.o.o.~.eXtX5X2X2X2X2X8X;X:XOX#X1X1X8X6X%X$XD.4.k.x.9.k.a.a.9.9.9.9.a.f.6.r.6.$.q.;.H V ",
"l V V V H C V R ^ ) +.&.%.%.%.) 2.2.#.#.%.5.7._ I.3XtX<X5X5X|.I.E.`.`.;X.X#X#X%X].$XG.v.l.6.k.r.c.x.x.f.r.w.f.f.8.6.<.6.:.$.~ H ",
"V F V C ~ G V ~ W ) @.#.&.2.%.+.%.%.6.l.k.7.0.0.y.].qX4X5X5X:X;X;X;X;X;X>X+X{.T.%X$Xu.7.x.D.H.l.f.f.9.9.r.f.k.l.8.8.6.:.6.$.~ H ",
"V H V H ~ R C / O.&.2.&.6.7.6.2.%.%.&.%.6.t.0.t.) Y.4XqX5X,X1X>X;X;X;X;X+X XT.T.=X0XL.t.k.k.M.x.x.x.f.k.k.l.h.x.8.8.:.6.:.%.[ H ",
"V G G H / ~ G ^ &.&.:.%.%.6.6.2.6.e.e.) 2.c.7.2.y.].tXqX,X;X}..X|.`.Y.`.T. X+X#X%X0X[.v.x.z.z.k.x.x.l.x.x.x.x.x.r.8.6.<.:.;.{ ~ ",
"V V V G { R H ) } O.&.#.%.e.e.e.e.e.v.f.k.k.O.r.[.=XaXqX8XoX'.'.`._.Y.Y.].+X3XrX3X=X[.t.l.H.M.M.f.f.f.k.k.x.k.k.r.8.:.w.q.;.} ~ ",
"V H H H { ~ W / O.&.2.6.e.t.t.t.h.;.d.6.O.V N ~.=XdXdXrXyXeX8X:X X.X#X>X3X3X3X6X%XdX$X6.H { 4.E.x.c.c.x.x.k.f.f.r.w.6.:.:.:.$.{ ",
"V H G W } { ~ O.&.6.7.6.6.6.%.#./ l H h a 0 8 H.-XaXaXaXsXsXyXsX1X3X7X7XqX6X6X=X=X=XXXR O 9 s o.9.r.f.f.k.f.f.e.f.w.8.:.w.:.$.[ ",
"G H P Q @.{ ^ @.&.:.&.O.Q Y l 1   # h o j Q , C XXwXpXpXsXsX9XsXyXqX5X3X<X3X6X0X=X~.;.X + A =   M S W @.:.d.x.c.f.r.6.:.6.:.$.} ",
"R R { #.X.X.@.] P F h > X * * p s u z Z u 3 v M V H.pXfXsXyXyX9X3X3X3X6X6X=X$XoXH.R @ , x s p x = * X o 3 F @.<.p.a.p.8.8.i.=.] ",
"| R ] ] K F F c p 3 u u i p z Z u u s Z 3 p c l $ W c.[.wXdXsXyXtX1X+X%X6XXXF.+.N 8 , 5 p * 2 z D v a 2 > , 3 p h J =.a.h.a.=.' ",
"..P H A e 5 5 > > 2 p p p p g z z u u z f f k w e 1 j R t.(.%XrX3X0XwX$XP.4.m % @ , s c p = u z 5 5 3 4 4 4 5 5 > a x K ] =.=.o.",
"! V B h 4 4 f 5 p f g p i i i i ` u u u f f f 4 B k < 1 e G :.v.H.L.P.z.^ 0 % , j h p 3 p p z g f f f f h f p 5 h h 3 = a A ] ] ",
"B f f w < f c z 5 i p 3 u u g z Z u u u z z u u f k B v w < w r v j 9 9 0 j h a j s 2 * 2 p p u c c k f p 5 p 5 h h a 5 a s a p ",
"g < 4 w : < f 5 p 5 p 4 u p z z Z u u u Z z p g 4 w k c k k w w 4 3 3 4 3 3 p a 2 p p 2 2 p p p 5 5 4 4 f f k v 5 h h p a a u 2 ",
"w < 5 f w 5 f < f h p p 3 2 p p z z u u Z s u Z 5 h h 3 w B D c k J P F i & ; p p f x Z k p f z k k f f 5 4 4 4 h h 5 4 3 h h p ",
"< 4 h v k f k 2 4 3 p p p p p z z Z u u Z z s Z < x A h w k k w g i 4 i g Z z p Z f p f h p 5 f f z z k k f 5 4 4 f k f z c h 2 ",
"3 2 f k p p f p 5 w w g g g g g u g g g u Z Z x Z s J a 2 h 2 z g g g f w : w 4 c k f f 5 h e k h h h h f h f f f f f k f h h z ",
"4 2 p z p f g f k g g w < < w k g Z Z u u u g u Z u a p z Z u p f p f f g f g g k k k f w e w h f f p h p 5 5 5 < 4 4 f f k z k ",
"4 4 g g 4 f g g f f g w < : w c u i u u u u g z p a L J a 2 2 D i f w w w 5 w 5 j k c c k k j h h h h h h h h f v v c c c c k g ",
"i : g g : f c g w f g g k g k c z z Z x z u : u Z p p f z Z 3 * 3 5 4 4 w 5 w w 5 5 5 h e 5 5 1 a h a a p 0 p p 2 2 5 5 f f f z ",
"g : g g u i z p z a s s k l r j 6 u u s s 2 * 2 i D ` Z z z Z z 3 3 5 p h l v v x x Z Z Z Z x x M Z x x x x v x h a h h h f f f ",
"i : i i 2 u z a x s 6 6 w % 6 7 d d d ' S z z Z & z c g u 2 z p p 0 9 9 , 3 , < s s s z z x x z j s s j a s a a x c c c k f h h ",
"i : i g u u s s 6 d T T I I d I I d 6 6 + . . = >.L & g J s 3   a 0 s 3 3 3 , = = = = = 2 3 u u 3 3 3 3 3 , , 2 * = ; 4 p f k c ",
": : : i ; u s d 6 ] S.D.S.1.1.1.S.s.s.S.N.D.^.*X/.*X*X*Xb.0 ' B.3 9 9 s x S S K ' ' ` ` ` ` ] ] o.o. . .{ | | [ =...[ P F v h 5 "