/* XPM */
static char *_ffec1d7d6594d59ae0c507ac0215a71KDHl1aHMGLrTlt5q[] = {
/* columns rows colors chars-per-pixel */
"16 16 20 1 ",
"  c #D5422E",
". c #DC4733",
"X c #E14B37",
"o c #DA4632",
"O c #DB4632",
"+ c #E44E3A",
"@ c #E8513D",
"# c #E64F3B",
"$ c #CC3A26",
"% c #D3402C",
"& c #E7503C",
"* c #CF3D29",
"= c #CB3A26",
"- c #D03D29",
"; c #CD3B27",
": c #CE3C28",
"> c #D13E2A",
", c #D4402C",
"< c #E54E3A",
"1 c white",
/* pixels */
" .............. ",
".XoO+@@@@@@#.oX.",
".o$$%+@&@@@+*=o.",
".o$$$%+@&@@+-$o.",
".o$;$$%+@&@+-$o.",
".o$$$$$%+@@+-$o.",
".o$:>$$$%+@+-$o.",
".o$-X,$$$%+<-$o.",
".o$-<+%$$$,X-$o.",
".o$-+@+%$$$>:$o.",
".o$-+@@+%$$$$$o.",
".o$-+@&@+%$$;$o.",
".o$-+@@&@+%$$$o.",
".o=*+@@@&@+%$$o.",
".Xo.#@@@@@@+OoX.",
" .............. "
};
