/* XPM */
static char *e5e0912e686c4837ebd52be9bc884496x2Kkf8ixwDyPV5W6[] = {
/* columns rows colors chars-per-pixel */
"64 64 2 1 ",
"  c #CD3B27",
". c #E8513D",
/* pixels */
"                                                                ",
"                                                                ",
"  ............................................................  ",
"  ............................................................  ",
"  ............................................................  ",
"  ............................................................  ",
"  ....          ................................          ....  ",
"  ....           ...............................          ....  ",
"  ....            ..............................          ....  ",
"  ....             .............................          ....  ",
"  ....              ............................          ....  ",
"  ....               ...........................          ....  ",
"  ....                ..........................          ....  ",
"  ....                 .........................          ....  ",
"  ....                  ........................          ....  ",
"  ....                   .......................          ....  ",
"  ....                    ......................          ....  ",
"  ....                     .....................          ....  ",
"  ....                      ....................          ....  ",
"  ....                       ...................          ....  ",
"  ....                        ..................          ....  ",
"  ....                         .................          ....  ",
"  ....                          ................          ....  ",
"  ....                           ...............          ....  ",
"  ....                            ..............          ....  ",
"  ....                             .............          ....  ",
"  ....          .                   ............          ....  ",
"  ....          ..                   ...........          ....  ",
"  ....          ...                   ..........          ....  ",
"  ....          ....                   .........          ....  ",
"  ....          .....                   ........          ....  ",
"  ....          ......                   .......          ....  ",
"  ....          .......                   ......          ....  ",
"  ....          ........                   .....          ....  ",
"  ....          .........                   ....          ....  ",
"  ....          ..........                   ...          ....  ",
"  ....          ...........                   ..          ....  ",
"  ....          ............                   .          ....  ",
"  ....          .............                             ....  ",
"  ....          ..............                            ....  ",
"  ....          ...............                           ....  ",
"  ....          ................                          ....  ",
"  ....          .................                         ....  ",
"  ....          ..................                        ....  ",
"  ....          ...................                       ....  ",
"  ....          ....................                      ....  ",
"  ....          .....................                     ....  ",
"  ....          ......................                    ....  ",
"  ....          .......................                   ....  ",
"  ....          ........................                  ....  ",
"  ....          .........................                 ....  ",
"  ....          ..........................                ....  ",
"  ....          ...........................               ....  ",
"  ....          ............................              ....  ",
"  ....          .............................             ....  ",
"  ....          ..............................            ....  ",
"  ....          ...............................           ....  ",
"  ....          ................................          ....  ",
"  ............................................................  ",
"  ............................................................  ",
"  ............................................................  ",
"  ............................................................  ",
"                                                                ",
"                                                                "
};
