/* XPM */
static char *_599785c44a74c7ffa78aa0daa6a006awqOCTtmmWDfhMoQD[] = {
/* columns rows colors chars-per-pixel */
"64 64 2 1 ",
"  c #303FC7",
". c #4086F7",
/* pixels */
"                                                                ",
"                                                                ",
"  ............................................................  ",
"  ............................................................  ",
"  ............................................................  ",
"  ............................................................  ",
"  ..............                                          ....  ",
"  .............                                           ....  ",
"  ............                                            ....  ",
"  ...........                                             ....  ",
"  ..........                                              ....  ",
"  .........                                               ....  ",
"  ........                                                ....  ",
"  .......                                                 ....  ",
"  ......                                                  ....  ",
"  .....                                                   ....  ",
"  ....                   .....................................  ",
"  ....                  ......................................  ",
"  ....                 .......................................  ",
"  ....                ........................................  ",
"  ....               .........................................  ",
"  ....               .........................................  ",
"  ....                ........................................  ",
"  ....                 .......................................  ",
"  ....                  ......................................  ",
"  ....                   .....................................  ",
"  .....                        ...............................  ",
"  ......                                   ...................  ",
"  .......                                        .............  ",
"  ........                                        ............  ",
"  .........                                        ...........  ",
"  ..........                                        ..........  ",
"  ...........                                        .........  ",
"  ............                                        ........  ",
"  .............                                        .......  ",
"  ..............                                        ......  ",
"  ....................                                   .....  ",
"  ................................                        ....  ",
"  ......................................                   ...  ",
"  .......................................                  ...  ",
"  ........................................                 ...  ",
"  .........................................                ...  ",
"  ..........................................               ...  ",
"  ..........................................               ...  ",
"  .........................................                ...  ",
"  ........................................                 ...  ",
"  .......................................                  ...  ",
"  ......................................                   ...  ",
"  ....                                                    ....  ",
"  ....                                                   .....  ",
"  ....                                                  ......  ",
"  ....                                                 .......  ",
"  ....                                                ........  ",
"  ....                                               .........  ",
"  ....                                              ..........  ",
"  ....                                             ...........  ",
"  ....                                            ............  ",
"  ....                                           .............  ",
"  ............................................................  ",
"  ............................................................  ",
"  ............................................................  ",
"  ............................................................  ",
"                                                                ",
"                                                                "
};
