/* XPM */
static char *e4e42d3ea1774dabfea94a76c7f80e6eabU8aVLGkefMaHRk[] = {
/* columns rows colors chars-per-pixel */
"64 64 2 1 ",
"  c #44904B",
". c #56B142",
/* pixels */
"                                                                ",
"                                                                ",
"  ............................................................  ",
"  ............................................................  ",
"  ............................................................  ",
"  ............................................................  ",
"  ....          ...........          ...........          ....  ",
"  ....          ...........          ...........          ....  ",
"  ....          ..........            ..........          ....  ",
"  ....           .........            .........           ....  ",
"  ....           .........            .........           ....  ",
"  ....           .........            .........           ....  ",
"  ....           ........              ........           ....  ",
"  ....            .......              .......            ....  ",
"  ....            .......              .......            ....  ",
"  ....            .......              .......            ....  ",
"  ....            ......                ......            ....  ",
"  ....             .....                .....             ....  ",
"  .....            .....                .....            .....  ",
"  .....            .....                .....            .....  ",
"  .....            ....                  ....            .....  ",
"  .....             ...                  ...             .....  ",
"  ......            ...                  ...            ......  ",
"  ......            ..                    ..            ......  ",
"  ......            ..                    ..            ......  ",
"  ......             .                    .             ......  ",
"  .......            .                    .            .......  ",
"  .......                                              .......  ",
"  .......                                              .......  ",
"  .......                                              .......  ",
"  ........                                            ........  ",
"  ........                                            ........  ",
"  ........                                            ........  ",
"  ........                                            ........  ",
"  .........                                          .........  ",
"  .........                                          .........  ",
"  .........                    ..                    .........  ",
"  .........                    ..                    .........  ",
"  ..........                   ..                   ..........  ",
"  ..........                   ..                   ..........  ",
"  ..........                  ....                  ..........  ",
"  ..........                  ....                  ..........  ",
"  ...........                 ....                 ...........  ",
"  ...........                ......                ...........  ",
"  ...........                ......                ...........  ",
"  ...........                ......                ...........  ",
"  ............               ......               ............  ",
"  ............              ........              ............  ",
"  ............              ........              ............  ",
"  ............              ........              ............  ",
"  .............             ........             .............  ",
"  .............            ..........            .............  ",
"  .............            ..........            .............  ",
"  .............            ..........            .............  ",
"  ..............           ..........           ..............  ",
"  ..............          ............          ..............  ",
"  ..............          ............          ..............  ",
"  ............................................................  ",
"  ............................................................  ",
"  ............................................................  ",
"  ............................................................  ",
"  ............................................................  ",
"                                                                ",
"                                                                "
};
